<mxfile host="app.diagrams.net" modified="2023-05-13T18:53:01.306Z" agent="Mozilla/5.0 (Windows NT 10.0; Win64; x64) AppleWebKit/537.36 (KHTML, like Gecko) Chrome/113.0.0.0 Safari/537.36" etag="eGeibYMViCu27GiFsrH4" version="21.3.0" type="device">
  <diagram name="PÃ¡gina-1" id="EIBgcM5PFqvHGxkX3eUA">
    <mxGraphModel dx="574" dy="283" grid="1" gridSize="10" guides="1" tooltips="1" connect="1" arrows="1" fold="1" page="1" pageScale="1" pageWidth="827" pageHeight="1169" math="0" shadow="0">
      <root>
        <mxCell id="0" />
        <mxCell id="1" parent="0" />
        <mxCell id="t2g8prmWbY7ajD-P4cZ7-1" value="MySQLConnection" style="swimlane;fontStyle=1;align=center;verticalAlign=top;childLayout=stackLayout;horizontal=1;startSize=26;horizontalStack=0;resizeParent=1;resizeParentMax=0;resizeLast=0;collapsible=1;marginBottom=0;whiteSpace=wrap;html=1;" vertex="1" parent="1">
          <mxGeometry x="150" y="30" width="180" height="144" as="geometry" />
        </mxCell>
        <mxCell id="t2g8prmWbY7ajD-P4cZ7-2" value="&lt;u&gt;- DB_URL : String&lt;/u&gt;&lt;br&gt;&lt;u&gt;- DB_USER: String&lt;/u&gt;&lt;br&gt;&lt;u&gt;- DB_PASSWORD: String&lt;/u&gt;&lt;br&gt;&lt;u&gt;- instance: MySQLConnection&lt;br&gt;&lt;/u&gt;- connection: Connection&lt;br&gt;" style="text;strokeColor=none;fillColor=none;align=left;verticalAlign=top;spacingLeft=4;spacingRight=4;overflow=hidden;rotatable=0;points=[[0,0.5],[1,0.5]];portConstraint=eastwest;whiteSpace=wrap;html=1;" vertex="1" parent="t2g8prmWbY7ajD-P4cZ7-1">
          <mxGeometry y="26" width="180" height="84" as="geometry" />
        </mxCell>
        <mxCell id="t2g8prmWbY7ajD-P4cZ7-3" value="" style="line;strokeWidth=1;fillColor=none;align=left;verticalAlign=middle;spacingTop=-1;spacingLeft=3;spacingRight=3;rotatable=0;labelPosition=right;points=[];portConstraint=eastwest;strokeColor=inherit;" vertex="1" parent="t2g8prmWbY7ajD-P4cZ7-1">
          <mxGeometry y="110" width="180" height="8" as="geometry" />
        </mxCell>
        <mxCell id="t2g8prmWbY7ajD-P4cZ7-4" value="+ getInstance()" style="text;strokeColor=none;fillColor=none;align=left;verticalAlign=top;spacingLeft=4;spacingRight=4;overflow=hidden;rotatable=0;points=[[0,0.5],[1,0.5]];portConstraint=eastwest;whiteSpace=wrap;html=1;" vertex="1" parent="t2g8prmWbY7ajD-P4cZ7-1">
          <mxGeometry y="118" width="180" height="26" as="geometry" />
        </mxCell>
        <mxCell id="t2g8prmWbY7ajD-P4cZ7-5" value="java.sql.connection" style="swimlane;fontStyle=1;align=center;verticalAlign=top;childLayout=stackLayout;horizontal=1;startSize=26;horizontalStack=0;resizeParent=1;resizeParentMax=0;resizeLast=0;collapsible=1;marginBottom=0;whiteSpace=wrap;html=1;" vertex="1" parent="1">
          <mxGeometry x="420" y="40" width="160" height="34" as="geometry" />
        </mxCell>
        <mxCell id="t2g8prmWbY7ajD-P4cZ7-7" value="" style="line;strokeWidth=1;fillColor=none;align=left;verticalAlign=middle;spacingTop=-1;spacingLeft=3;spacingRight=3;rotatable=0;labelPosition=right;points=[];portConstraint=eastwest;strokeColor=inherit;" vertex="1" parent="t2g8prmWbY7ajD-P4cZ7-5">
          <mxGeometry y="26" width="160" height="8" as="geometry" />
        </mxCell>
        <mxCell id="t2g8prmWbY7ajD-P4cZ7-9" value="1" style="endArrow=open;html=1;endSize=12;startArrow=diamondThin;startSize=14;startFill=1;edgeStyle=orthogonalEdgeStyle;align=left;verticalAlign=bottom;rounded=0;" edge="1" parent="1" source="t2g8prmWbY7ajD-P4cZ7-5" target="t2g8prmWbY7ajD-P4cZ7-1">
          <mxGeometry x="-1" y="3" relative="1" as="geometry">
            <mxPoint x="450" y="110" as="sourcePoint" />
            <mxPoint x="610" y="110" as="targetPoint" />
          </mxGeometry>
        </mxCell>
      </root>
    </mxGraphModel>
  </diagram>
</mxfile>
